<?xml version="1.0" encoding="iso-8859-1"?>
<!-- Generator: Adobe Illustrator 19.0.0, SVG Export Plug-In . SVG Version: 6.00 Build 0)  -->
<svg version="1.1" id="Capa_1" xmlns="http://www.w3.org/2000/svg" xmlns:xlink="http://www.w3.org/1999/xlink" x="0px" y="0px"
	 viewBox="0 0 187.733 187.733" style="enable-background:new 0 0 187.733 187.733;" xml:space="preserve">
<path style="fill:#F97DA3;" d="M177.543,170.667L163.89,38.566c0-8.103-6.569-14.672-14.672-14.672l-54.163-10.24L42.03,23.893
	c-8.103,0-14.672,6.569-14.672,14.672L10.291,170.667h34.133v13.653h98.987v-13.653H177.543z"/>
<path d="M146.823,187.733H41.01V174.08H6.405L23.943,38.337c0.123-9.754,8.003-17.671,17.743-17.853l53.361-10.305l54.508,10.305
	c9.757,0.177,17.652,8.122,17.748,17.898l14.027,135.699h-34.505L146.823,187.733L146.823,187.733z M47.836,180.907h92.16v-13.653
	h33.761L160.476,38.567c0-6.209-5.052-11.261-11.261-11.261l-0.633-0.06L95.06,17.128L42.356,27.307H42.03
	c-6.209,0-11.261,5.052-11.261,11.261l-0.029,0.437L14.172,167.253h33.664V180.907z"/>
<path style="fill:#EE5281;" d="M115.531,23.893H75.713c-4.086,0-7.398-3.313-7.398-7.398V10.81c0-4.086,3.313-7.398,7.398-7.398
	h39.818c4.086,0,7.398,3.313,7.398,7.398v5.685C122.93,20.581,119.617,23.893,115.531,23.893z"/>
<path d="M115.531,27.307H75.715c-5.961,0-10.812-4.85-10.812-10.812v-5.683C64.903,4.85,69.753,0,75.715,0h39.817
	c5.961,0,10.812,4.85,10.812,10.812v5.683C126.343,22.456,121.492,27.307,115.531,27.307z M75.715,6.827
	c-2.196,0-3.985,1.789-3.985,3.985v5.683c0,2.196,1.789,3.985,3.985,3.985h39.817c2.196,0,3.985-1.789,3.985-3.985v-5.683
	c0-2.196-1.789-3.985-3.985-3.985H75.715z"/>
<path d="M44.426,174.08c-0.082,0-0.164-0.003-0.247-0.009c-1.881-0.135-3.296-1.768-3.162-3.649l6.827-95.573
	c0.133-1.879,1.754-3.258,3.649-3.162c1.881,0.135,3.296,1.768,3.162,3.649l-6.827,95.573C47.7,172.706,46.201,174.08,44.426,174.08
	z"/>
<path d="M143.406,174.08c-1.775,0-3.273-1.374-3.401-3.169l-6.827-95.573c-0.133-1.881,1.282-3.514,3.162-3.649
	c1.891-0.094,3.516,1.283,3.649,3.162l6.827,95.573c0.133,1.881-1.282,3.514-3.162,3.649
	C143.57,174.077,143.488,174.08,143.406,174.08z"/>
<path d="M30.769,157.013H13.703c-1.884,0-3.413-1.529-3.413-3.413s1.529-3.413,3.413-3.413h17.067c1.884,0,3.413,1.529,3.413,3.413
	S32.654,157.013,30.769,157.013z"/>
<path d="M174.13,157.013h-17.067c-1.884,0-3.413-1.529-3.413-3.413s1.529-3.413,3.413-3.413h17.067c1.884,0,3.413,1.529,3.413,3.413
	S176.014,157.013,174.13,157.013z"/>
<g>
</g>
<g>
</g>
<g>
</g>
<g>
</g>
<g>
</g>
<g>
</g>
<g>
</g>
<g>
</g>
<g>
</g>
<g>
</g>
<g>
</g>
<g>
</g>
<g>
</g>
<g>
</g>
<g>
</g>
</svg>
